<?xml version="1.0" encoding="UTF-8" standalone="no"?>
<svg
   xmlns:dc="http://purl.org/dc/elements/1.1/"
   xmlns:cc="http://creativecommons.org/ns#"
   xmlns:rdf="http://www.w3.org/1999/02/22-rdf-syntax-ns#"
   xmlns:svg="http://www.w3.org/2000/svg"
   xmlns="http://www.w3.org/2000/svg"
   xmlns:sodipodi="http://sodipodi.sourceforge.net/DTD/sodipodi-0.dtd"
   xmlns:inkscape="http://www.inkscape.org/namespaces/inkscape"
   height="21"
   version="1.1"
   viewBox="0 0 21 21"
   width="21"
   x="0px"
   xml:space="preserve"
   y="0px"
   id="svg2"
   inkscape:version="0.48.4 r9939"
   sodipodi:docname="tictracking.svg"><metadata
     id="metadata16"><rdf:RDF><cc:Work
         rdf:about=""><dc:format>image/svg+xml</dc:format><dc:type
           rdf:resource="http://purl.org/dc/dcmitype/StillImage" /></cc:Work></rdf:RDF></metadata><defs
     id="defs14" /><sodipodi:namedview
     pagecolor="#ffffff"
     bordercolor="#666666"
     borderopacity="1"
     objecttolerance="10"
     gridtolerance="10"
     guidetolerance="10"
     inkscape:pageopacity="0"
     inkscape:pageshadow="2"
     inkscape:window-width="1366"
     inkscape:window-height="718"
     id="namedview12"
     showgrid="false"
     inkscape:zoom="11.313709"
     inkscape:cx="2.4299386"
     inkscape:cy="11.703643"
     inkscape:window-x="0"
     inkscape:window-y="0"
     inkscape:window-maximized="1"
     inkscape:current-layer="g6" /><g
     id="Layer_1"
     transform="translate(0,-11)" /><g
     id="g6"
     transform="matrix(0.55932203,0,0,0.55932203,8.6779661,-7.2033897)"><g
       id="g3959"
       transform="matrix(0.65625002,0,0,0.65625002,-5.3333335,17.333333)"><rect
         ry="3.6858134"
         y="-6.7878785"
         x="-15.515151"
         height="57.21212"
         width="57.21212"
         id="rect3823"
         style="fill:#27ae60;fill-opacity:1" /><g
         transform="matrix(0.85386481,0,0,0.8558834,66.397774,2.7220524)"
         id="g3948"><path
           sodipodi:type="arc"
           style="fill:#ffffff;fill-opacity:1"
           id="path3856"
           sodipodi:cx="-72.4375"
           sodipodi:cy="57.0625"
           sodipodi:rx="10.0625"
           sodipodi:ry="10.0625"
           d="m -62.375,57.0625 c 0,5.557365 -4.505135,10.0625 -10.0625,10.0625 C -77.994865,67.125 -82.5,62.619865 -82.5,57.0625 -82.5,51.505135 -77.994865,47 -72.4375,47 c 5.557365,0 10.0625,4.505135 10.0625,10.0625 z"
           transform="matrix(1.4096937,0,0,1.4096937,36.571492,-65.254981)" /><path
           style="fill:#bdc3c7;fill-opacity:1"
           d="m -65.500193,1.821917 c -4.513428,0 -8.465805,2.3241674 -10.755689,5.8454847 2.448355,-2.8484898 5.949236,-4.6374176 9.859387,-4.6374176 7.39628,0 13.405639,6.3796997 13.405639,14.2629819 0,0.119499 0.0028,0.231934 0,0.350729 0.227949,-0.957694 0.31176,-1.97322 0.31176,-3.000681 0,-7.0919112 -5.729183,-12.821097 -12.821097,-12.821097 z"
           id="path3831"
           inkscape:connector-curvature="0" /><rect
           style="fill:#2c3e50;fill-opacity:1"
           id="rect3809"
           width="8.7483301"
           height="2.5406797"
           x="20.751451"
           y="-65.033493"
           ry="1.2703398"
           transform="matrix(-0.51390905,-0.85784468,0.85784468,-0.51390905,0,0)" /><rect
           style="fill:#2c3e50;fill-opacity:1"
           id="rect3813"
           width="9.8204145"
           height="2.1043744"
           x="-64.841728"
           y="14.172448"
           ry="1.0521872" /><path
           sodipodi:type="arc"
           style="fill:#2c3e50;fill-opacity:1"
           id="path3817"
           sodipodi:cx="-61.375"
           sodipodi:cy="23.4375"
           sodipodi:rx="2"
           sodipodi:ry="2"
           d="m -59.375,23.4375 c 0,1.104569 -0.895431,2 -2,2 -1.104569,0 -2,-0.895431 -2,-2 0,-1.104569 0.895431,-2 2,-2 1.104569,0 2,0.895431 2,2 z"
           transform="matrix(1.4224013,0,0,1.4224013,22.029472,-18.190835)" /><rect
           style="fill:#c0392b;fill-opacity:1"
           id="rect3821"
           width="1.1690969"
           height="10.654251"
           x="-36.074165"
           y="56.449604"
           transform="matrix(0.70710678,0.70710678,-0.70710678,0.70710678,0,0)"
           ry="0.74679333" /><g
           id="g3936"><path
             d="m -65.603941,2.0444751 c 7.0824,0 12.844017,5.7616151 12.844017,12.8440239 0,7.082406 -5.761617,12.844023 -12.844017,12.844023 -7.082414,0 -12.844024,-5.761617 -12.844024,-12.844023 0,-7.0824088 5.76161,-12.8440239 12.844024,-12.8440239 m 0,-4.2813405 c -9.457476,0 -17.125367,7.6678815 -17.125367,17.1253644 0,9.457482 7.667891,17.125363 17.125367,17.125363 9.457482,0 17.125353,-7.667881 17.125353,-17.125363 0,-9.4574829 -7.667871,-17.1253644 -17.125353,-17.1253644 l 0,0 z"
             style="fill:#2c3e50;fill-opacity:1"
             id="path8-5"
             inkscape:connector-curvature="0" /><rect
             ry="3.2077529"
             transform="matrix(0.81964781,-0.57286776,0.57197501,0.82027105,0,0)"
             y="-11.951694"
             x="-65.787079"
             height="24.666191"
             width="7.0444298"
             id="rect2996"
             style="fill:#2c3e50;fill-opacity:1;fill-rule:evenodd" /></g></g></g></g></svg>